<svg width="32" height="32" viewBox="0 0 32 32" fill="none" xmlns="http://www.w3.org/2000/svg">
<g clip-path="url(#clip0_1_2)">
<path d="M28.7974 8.17523C30.6577 11.2178 31.3732 14.8236 30.8154 18.3459C30.2577 21.8682 28.4633 25.0766 25.754 27.3956C23.0447 29.7146 19.5978 30.9925 16.0316 31C12.4654 31.0075 9.01319 29.7442 6.29416 27.4366C3.57513 25.1291 1.76718 21.9283 1.1946 18.4084C0.622021 14.8884 1.32227 11.2796 3.16975 8.22925C5.01723 5.17889 7.89106 2.88654 11.2758 1.76337C14.6605 0.640196 18.3347 0.759688 21.6393 2.10041" stroke="#CF9FFF" stroke-opacity="0.8" stroke-width="2"/>
<path d="M20.928 11.424C20.816 11.312 20.608 11.16 20.304 10.968C20.016 10.776 19.656 10.592 19.224 10.416C18.808 10.24 18.352 10.088 17.856 9.96C17.36 9.816 16.856 9.744 16.344 9.744C15.448 9.744 14.768 9.912 14.304 10.248C13.856 10.584 13.632 11.056 13.632 11.664C13.632 12.128 13.776 12.496 14.064 12.768C14.352 13.04 14.784 13.272 15.36 13.464C15.936 13.656 16.656 13.864 17.52 14.088C18.64 14.36 19.608 14.696 20.424 15.096C21.256 15.48 21.888 15.992 22.32 16.632C22.768 17.256 22.992 18.088 22.992 19.128C22.992 20.04 22.824 20.824 22.488 21.48C22.152 22.12 21.688 22.64 21.096 23.04C20.504 23.44 19.832 23.736 19.08 23.928C18.328 24.104 17.528 24.192 16.68 24.192C15.832 24.192 14.984 24.104 14.136 23.928C13.288 23.752 12.472 23.504 11.688 23.184C10.904 22.848 10.184 22.448 9.528 21.984L10.992 19.128C11.136 19.272 11.392 19.464 11.76 19.704C12.128 19.928 12.576 20.16 13.104 20.4C13.632 20.624 14.208 20.816 14.832 20.976C15.456 21.136 16.088 21.216 16.728 21.216C17.624 21.216 18.304 21.064 18.768 20.76C19.232 20.456 19.464 20.024 19.464 19.464C19.464 18.952 19.28 18.552 18.912 18.264C18.544 17.976 18.032 17.728 17.376 17.52C16.72 17.296 15.944 17.056 15.048 16.8C13.976 16.496 13.08 16.16 12.36 15.792C11.64 15.408 11.104 14.928 10.752 14.352C10.4 13.776 10.224 13.056 10.224 12.192C10.224 11.024 10.496 10.048 11.04 9.264C11.6 8.464 12.352 7.864 13.296 7.464C14.24 7.048 15.288 6.84 16.44 6.84C17.24 6.84 17.992 6.928 18.696 7.104C19.416 7.28 20.088 7.512 20.712 7.8C21.336 8.088 21.896 8.4 22.392 8.736L20.928 11.424Z" fill="#CF9FFF"/>
</g>
<defs>
<clipPath id="clip0_1_2">
<rect width="32" height="32" fill="white"/>
</clipPath>
</defs>
</svg>
